#!OML:ASF H:\ManfredETheater\Project 1\Capture day 1\Session 1\subject.ASF
:FULLY-SPECIFIED
:DEGREES
121
root 6.99623 14.5865 -4.11241 -457.959 -71.9449 127.308
lowerback 44.2179 -4.61244 2.29863
upperback 7.40711 -6.04732 -2.34252
thorax -12.7957 -3.1034 -0.825375
lowerneck 0.503607 -10.6147 -12.5859
upperneck -24.0458 -13.6569 16.3607
head -5.13902 -7.65167 7.79497
rclavicle 7.71285e-014 -1.27222e-014
rhumerus -21.7887 -10.8639 -67.3711
rradius 63.3844
rwrist -9.79675
rhand -30.6926 -4.48084
rfingers 7.12502
rthumb -3.98626 -34.4233
lclavicle 7.71285e-014 -1.27222e-014
lhumerus -32.7392 -1.23233 91.0664
lradius 105.547
lwrist -17.5499
lhand -40.8261 -21.9835
lfingers 7.12502
lthumb -13.7641 7.5412
rfemur -78.8558 -19.0327 17.438
rtibia 90.5324
rfoot -31.8021 -10.2784
rtoes -24.9803
lfemur -36.7472 -6.33282 4.39007
ltibia 62.9656
lfoot 12.4824 -13.7836
ltoes -2.8371
122
root 6.80287 14.6922 -4.44922 -459.516 -71.266 128.969
lowerback 43.4232 -4.41281 2.04115
upperback 7.07336 -5.91743 -2.43667
thorax -12.9435 -3.0324 -0.877909
lowerneck 0.306143 -10.5956 -12.4995
upperneck -24.4753 -13.597 16.528
head -5.23826 -7.65694 7.85779
rclavicle -4.77083e-014 -2.34566e-014
rhumerus -22.5832 -10.8781 -67.4497
rradius 65.6677
rwrist -10.0558
rhand -31.301 -4.54667
rfingers 7.12502
rthumb -4.57379 -34.4773
lclavicle -4.77083e-014 -2.34566e-014
lhumerus -32.9683 -1.29201 90.7045
lradius 105.526
lwrist -17.5283
lhand -40.922 -21.7983
lfingers 7.12502
lthumb -13.8565 7.72015
rfemur -77.6301 -18.4589 18.2435
rtibia 89.9382
rfoot -31.9266 -9.90629
rtoes -24.7683
lfemur -38.1349 -5.01565 2.42292
ltibia 66.028
lfoot 10.6306 -12.0407
ltoes -1.58347
123
root 6.60834 14.7979 -4.78862 -460.87 -70.6293 130.403
lowerback 42.6221 -4.22159 1.79217
upperback 6.74268 -5.79043 -2.53568
thorax -13.0788 -2.9625 -0.938654
lowerneck 0.103549 -10.585 -12.4426
upperneck -24.8343 -13.5475 16.7045
head -5.31027 -7.66374 7.92158
rclavicle -3.81667e-014 -3.51849e-014
rhumerus -23.4611 -10.8786 -67.6338
rradius 68.07
rwrist -10.4508
rhand -31.8434 -4.64924
rfingers 7.12502
rthumb -5.09753 -34.5679
lclavicle -3.81667e-014 -3.51849e-014
lhumerus -33.2584 -1.19346 90.229
lradius 105.311
lwrist -17.0622
lhand -40.9884 -21.29
lfingers 7.12502
lthumb -13.9204 8.22407
rfemur -76.2923 -17.9623 19.0116
rtibia 89.2552
rfoot -31.9523 -9.37849
rtoes -24.5925
lfemur -39.6425 -3.83857 0.493329
ltibia 68.9639
lfoot 8.69744 -10.1651
ltoes -0.661496
124
root 6.41214 14.903 -5.13065 -462.003 -70.0837 131.632
lowerback 41.7586 -4.05192 1.58943
upperback 6.41065 -5.66171 -2.62077
thorax -13.1889 -2.89273 -1.01112
lowerneck -0.0995597 -10.5813 -12.4366
upperneck -25.1245 -13.5051 16.9044
head -5.35347 -7.66967 7.99451
rclavicle -2.94201e-014 -3.93594e-014
rhumerus -24.4082 -10.858 -67.9226
rradius 70.5491
rwrist -10.8177
rhand -32.2744 -4.75536
rfingers 7.12502
rthumb -5.51365 -34.6636
lclavicle -2.94201e-014 -3.93594e-014
lhumerus -33.6477 -0.946939 89.6753
lradius 104.91
lwrist -16.1589
lhand -40.9902 -20.4943
lfingers 7.12502
lthumb -13.9221 9.01961
rfemur -74.8828 -17.5332 19.8018
rtibia 88.474
rfoot -31.8911 -8.72609
rtoes -24.403
lfemur -41.3212 -2.81085 -1.34834
ltibia 71.748
lfoot 6.68686 -8.39686
ltoes -0.141451
125
root 6.21367 15.0068 -5.47558 -462.96 -69.6565 132.712
lowerback 40.8167 -3.90338 1.44779
upperback 6.07522 -5.52295 -2.68074
thorax -13.2686 -2.82009 -1.09544
lowerneck -0.291357 -10.5843 -12.4763
upperneck -25.3556 -13.4703 17.1245
head -5.37339 -7.67509 8.07628
rclavicle 6.75868e-014 6.40087e-014
rhumerus -25.4142 -10.8026 -68.3221
rradius 73.0693
rwrist -11.1084
rhand -32.6088 -4.76666
rfingers 7.12502
rthumb -5.83657 -34.6663
lclavicle 6.75868e-014 6.40087e-014
lhumerus -34.1696 -0.586001 89.0646
lradius 104.35
lwrist -14.8704
lhand -40.9004 -19.4991
lfingers 7.12502
lthumb -13.8356 10.0208
rfemur -73.4127 -17.1691 20.6652
rtibia 87.5842
rfoot -31.744 -8.01969
rtoes -24.3013
lfemur -43.1743 -1.96001 -3.07243
ltibia 74.3529
lfoot 4.65686 -6.9342
ltoes 0.14882
126
root 6.01231 15.1082 -5.82362 -463.791 -69.3604 133.701
lowerback 39.7848 -3.76935 1.36839
upperback 5.73575 -5.36517 -2.70615
thorax -13.3108 -2.7408 -1.18668
lowerneck -0.468874 -10.595 -12.5533
upperneck -25.5321 -13.446 17.3542
head -5.37317 -7.68109 8.16277
rclavicle -8.74653e-014 7.95139e-016
rhumerus -26.4612 -10.7285 -68.836
rradius 75.5826
rwrist -11.177
rhand -32.8419 -4.63008
rfingers 7.12502
rthumb -6.06158 -34.5234
lclavicle -8.74653e-014 7.95139e-016
lhumerus -34.849 -0.142242 88.4264
lradius 103.672
lwrist -13.3168
lhand -40.6955 -18.52
lfingers 7.12502
lthumb -13.6382 11.0132
rfemur -71.8909 -16.8695 21.6361
rtibia 86.5747
rfoot -31.531 -7.25834
rtoes -24.2037
lfemur -45.1988 -1.27456 -4.66911
ltibia 76.7533
lfoot 2.6828 -5.87638
ltoes 0.190108
127
root 5.80726 15.2069 -6.17552 -464.529 -69.1998 134.631
lowerback 38.6621 -3.64852 1.34444
upperback 5.39271 -5.19067 -2.69211
thorax -13.311 -2.65559 -1.27498
lowerneck -0.628087 -10.6109 -12.6447
upperneck -25.6592 -13.4307 17.5771
head -5.35856 -7.6875 8.24609
rclavicle 2.94201e-014 -4.41302e-014
rhumerus -27.5374 -10.6029 -69.4631
rradius 78.0507
rwrist -10.9823
rhand -32.98 -4.29527
rfingers 7.12502
rthumb -6.1949 -34.1847
lclavicle 2.94201e-014 -4.41302e-014
lhumerus -35.7137 0.339111 87.7737
lradius 102.941
lwrist -11.6314
lhand -40.4135 -17.6229
lfingers 7.12502
lthumb -13.3664 11.9284
rfemur -70.307 -16.6319 22.7279
rtibia 85.4354
rfoot -31.2546 -6.4667
rtoes -24.1075
lfemur -47.3718 -0.763675 -6.13236
ltibia 78.922
lfoot 0.775791 -5.20567
ltoes -0.319978
128
root 5.59775 15.3021 -6.53213 -465.241 -69.1446 135.544
lowerback 37.4655 -3.52751 1.34099
upperback 5.0546 -5.00161 -2.64842
thorax -13.2611 -2.5645 -1.3511
lowerneck -0.777444 -10.6328 -12.7325
upperneck -25.7332 -13.4248 17.7884
head -5.3288 -7.69539 8.32082
rclavicle -6.2816e-014 -1.23246e-014
rhumerus -28.6222 -10.4265 -70.2179
rradius 80.4328
rwrist -10.5007
rhand -33.0383 -3.7457
rfingers 7.12502
rthumb -6.25122 -33.6335
lclavicle -6.2816e-014 -1.23246e-014
lhumerus -36.7591 0.85745 87.1248
lradius 102.188
lwrist -10.0358
lhand -40.0314 -17.0166
lfingers 7.12502
lthumb -12.9981 12.5585
rfemur -68.6354 -16.4555 23.9126
rtibia 84.1603
rfoot -30.9227 -5.61071
rtoes -23.8883
lfemur -49.6369 -0.424067 -7.48729
ltibia 80.8328
lfoot -1.06741 -4.87946
ltoes -1.48162
129
root 5.3829 15.3936 -6.89458 -466.037 -69.1589 136.506
lowerback 36.242 -3.38717 1.31765
upperback 4.73097 -4.79416 -2.58676
thorax -13.1639 -2.46455 -1.40577
lowerneck -0.917796 -10.6632 -12.8025
upperneck -25.7506 -13.4315 17.9846
head -5.28353 -7.70705 8.38302
rclavicle -1.27222e-014 -2.62396e-014
rhumerus -29.7058 -10.2013 -71.1053
rradius 82.6946
rwrist -9.74133
rhand -33.0326 -3.0122
rfingers 7.12502
rthumb -6.24564 -32.9001
lclavicle -1.27222e-014 -2.62396e-014
lhumerus -37.9939 1.35572 86.4939
lradius 101.48
lwrist -8.66414
lhand -39.6065 -16.7496
lfingers 7.12502
lthumb -12.5885 12.8512
rfemur -66.8204 -16.3429 25.1562
rtibia 82.7421
rfoot -30.5339 -4.66723
rtoes -23.5073
lfemur -51.8975 -0.245882 -8.74836
ltibia 82.4585
lfoot -2.84611 -4.85845
ltoes -3.13505
130
root 5.16207 15.4817 -7.26398 -466.988 -69.2051 137.57
lowerback 34.9294 -3.21284 1.24091
upperback 4.50879 -4.56654 -2.52761
thorax -13.0145 -2.3538 -1.43091
lowerneck -1.04834 -10.7033 -12.8477
upperneck -25.7094 -13.4518 18.1682
head -5.22232 -7.72373 8.43209
rclavicle 4.92986e-014 -3.57812e-015
rhumerus -30.7788 -9.90604 -72.1285
rradius 84.8065
rwrist -8.78543
rhand -33.0329 -2.1207
rfingers 7.12502
rthumb -6.24601 -32.0086
lclavicle 4.92986e-014 -3.57812e-015
lhumerus -39.4051 1.79226 85.8787
lradius 100.857
lwrist -7.61001
lhand -39.1909 -16.8108
lfingers 7.12502
lthumb -12.1877 12.8141
rfemur -64.8259 -16.2624 26.4053
rtibia 81.1732
rfoot -30.0709 -3.61065
rtoes -22.9072
lfemur -54.0968 -0.182134 -9.94265
ltibia 83.7797
lfoot -4.574 -5.09854
ltoes -5.07115
131
root 4.9345 15.5679 -7.64101 -468.155 -69.2487 138.749
lowerback 33.7338 -3.0068 1.07979
upperback 4.24168 -4.3294 -2.46585
thorax -12.8229 -2.2357 -1.42011
lowerneck -1.17383 -10.7541 -12.8835
upperneck -25.6012 -13.4848 18.3548
head -5.13909 -7.74474 8.4741
rclavicle 3.65764e-014 5.40694e-014
rhumerus -31.8273 -9.51962 -73.2868
rradius 86.7494
rwrist -7.73748
rhand -33.0214 -1.13967
rfingers 7.12502
rthumb -6.23487 -31.0279
lclavicle 3.65764e-014 5.40694e-014
lhumerus -40.9695 2.14527 85.2805
lradius 100.338
lwrist -6.93049
lhand -38.8176 -17.1368
lfingers 7.12502
lthumb -11.8278 12.5092
rfemur -62.5923 -16.2252 27.6026
rtibia 79.4425
rfoot -29.5126 -2.36881
rtoes -21.9387
lfemur -56.1528 -0.200498 -11.1013
ltibia 84.7782
lfoot -6.26166 -5.57371
ltoes -7.09916
